<svg width="6477" height="887" viewBox="0 0 6477 887" fill="none" xmlns="http://www.w3.org/2000/svg">
<path d="M980.77 110.611H931V93.5193C931.005 91.0101 930.511 88.5245 929.547 86.2049C928.582 83.8853 927.166 81.7773 925.378 80.0016C923.591 78.2259 921.468 76.8175 919.131 75.8569C916.795 74.8964 914.29 74.4027 911.76 74.404H858.76V20.0736C858.766 17.4692 858.234 14.8912 857.197 12.4985C856.16 10.1058 854.64 7.9493 852.731 6.16191C850.821 4.37452 848.562 2.99419 846.094 2.10606C843.626 1.21792 841.001 0.840823 838.38 0.998017C835.67 1.18649 771.23 5.23374 695 35.5385C608.11 70.069 541.48 124.995 500 195.712C458.52 124.995 391.89 70.069 305 35.5385C228.77 5.23374 164.33 1.18649 161.62 0.998017C159.004 0.845199 156.385 1.22456 153.922 2.11279C151.46 3.00102 149.206 4.37936 147.3 6.16311C145.394 7.94687 143.876 10.0984 142.839 12.4854C141.802 14.8725 141.268 17.4446 141.27 20.0439V74.404H88.27C85.7379 74.3987 83.2298 74.8896 80.8895 75.8484C78.5491 76.8072 76.4227 78.215 74.6323 79.991C72.8419 81.7671 71.4226 83.8764 70.4561 86.198C69.4896 88.5195 68.9947 91.0075 69 93.5193V110.611H19.23C14.1299 110.611 9.23866 112.621 5.63234 116.198C2.02601 119.775 0 124.627 0 129.687V783.218C0.00265219 785.862 0.558804 788.476 1.63323 790.896C2.70765 793.316 4.27693 795.488 6.24168 797.274C8.20642 799.061 10.5238 800.424 13.047 801.276C15.5703 802.128 18.2444 802.451 20.9 802.224C23.72 801.976 304.97 779.071 481.71 878.12L481.9 878.219C482.76 878.695 483.61 879.211 484.47 879.687C484.82 880.044 485.19 880.391 485.56 880.729C487.314 882.493 489.408 883.891 491.716 884.838C494.025 885.785 496.502 886.263 499 886.244C499.33 886.244 499.65 886.244 500 886.184C500.35 886.125 500.65 886.244 501 886.244C504.716 886.242 508.352 885.174 511.47 883.169C512.548 882.455 513.553 881.638 514.47 880.729C514.84 880.391 515.21 880.044 515.56 879.687C516.42 879.191 517.27 878.695 518.13 878.219L518.32 878.12C695.06 779.071 976.32 801.976 979.13 802.224C981.786 802.454 984.462 802.133 986.986 801.282C989.511 800.431 991.829 799.069 993.795 797.281C995.76 795.494 997.329 793.321 998.403 790.9C999.476 788.479 1000.03 785.863 1000.03 783.218V129.687C1000.03 127.179 999.532 124.696 998.563 122.38C997.595 120.063 996.176 117.959 994.387 116.188C992.598 114.416 990.475 113.011 988.138 112.054C985.802 111.098 983.298 110.607 980.77 110.611ZM892.53 112.595V692.532C848.052 695.281 803.881 701.684 760.47 711.677C706.19 724.106 636.27 746.396 570.76 785.638C574.26 781.584 577.96 777.501 581.86 773.387C646.89 705.001 734 666.691 840.8 659.529C845.663 659.202 850.219 657.056 853.548 653.524C856.876 649.992 858.729 645.338 858.73 640.503V112.595H892.53ZM708.19 71.428C744.235 57.1011 781.853 47.0295 820.27 41.4209V622.965C685.36 636.545 601.27 697.363 553.88 747.199C541.999 759.68 530.975 772.936 520.88 786.878V241.403C520.872 240.502 520.798 239.604 520.66 238.714C556.13 163.305 619.16 107.05 708.19 71.428ZM179.73 41.401C217.764 46.9269 255.017 56.8445 290.73 70.9519C380.33 106.574 443.73 162.987 479.38 238.714C479.242 239.604 479.168 240.502 479.16 241.403V786.928C469.065 772.986 458.041 759.729 446.16 747.249C398.75 697.362 314.64 636.545 179.73 622.965V41.401ZM107.47 112.595H141.27V640.503C141.272 645.338 143.124 649.992 146.452 653.524C149.781 657.056 154.337 659.202 159.2 659.529C265.28 666.611 352 704.525 416.92 772.108C421.28 776.641 425.37 781.154 429.24 785.638C363.73 746.346 293.81 724.136 239.53 711.677C196.119 701.684 151.948 695.281 107.47 692.532V112.595ZM38.46 762.833V148.802H69V710.893C69.0026 715.934 71.0157 720.77 74.5999 724.344C78.184 727.918 83.0481 729.94 88.13 729.969C89.95 729.969 223.99 731.546 353.51 789.269C303.583 777.127 248.25 768.913 187.51 764.628C137.906 761.116 88.1356 760.517 38.46 762.833ZM961.54 762.833C911.882 760.505 862.128 761.092 812.54 764.589C751.973 768.847 696.707 777.041 646.74 789.17C690.01 769.856 732.68 757.208 768.25 749.015C848.54 730.524 911.25 729.929 911.89 729.929C916.962 729.895 921.815 727.876 925.393 724.311C928.972 720.746 930.987 715.924 931 710.893V148.802H961.55L961.54 762.833Z" fill="white"/>
<path d="M1651.12 661.032V801H1166.1V110.88H1642.38V250.848H1325.5V384.984H1597.66V514.26H1325.5V661.032H1651.12Z" fill="white"/>
<path d="M1696.68 545.364C1696.68 495.468 1706.4 450.756 1725.84 411.228C1745.28 371.052 1771.85 339.3 1805.54 315.972C1839.24 292.644 1878.12 280.98 1922.18 280.98C1957.82 280.98 1990.22 289.728 2019.38 307.224C2048.54 324.072 2070.58 346.428 2085.48 374.292V91.4399H2241V627.984C2241 643.536 2243.59 654.552 2248.77 661.032C2253.96 666.864 2262.38 670.428 2274.05 671.724V801C2246.83 806.184 2224.8 808.776 2207.95 808.776C2181.38 808.776 2159.67 802.944 2142.83 791.28C2126.63 779.616 2116.58 763.416 2112.69 742.68L2109.78 716.436C2091.63 748.188 2067.01 771.84 2035.91 787.392C2004.8 802.944 1972.08 810.72 1937.73 810.72C1902.74 810.72 1870.34 804.24 1840.53 791.28C1811.37 777.672 1785.78 758.88 1763.75 734.904C1742.36 710.928 1725.84 682.74 1714.17 650.34C1702.51 617.94 1696.68 582.948 1696.68 545.364ZM2086.45 608.544V501.624C2079.97 484.128 2070.57 468.9 2058.26 455.94C2046.6 442.98 2032.99 432.612 2017.44 424.836C2002.53 417.06 1987.31 413.172 1971.75 413.172C1954.91 413.172 1939.35 416.736 1925.1 423.864C1911.49 430.992 1899.5 441.036 1889.13 453.996C1878.77 466.308 1870.67 480.564 1864.83 496.764C1859.65 512.964 1857.06 530.136 1857.06 548.28C1857.06 567.072 1859.97 584.568 1865.81 600.768C1872.29 616.32 1881.03 630.252 1892.05 642.564C1903.07 654.228 1916.03 663.3 1930.93 669.78C1945.83 676.26 1962.03 679.5 1979.53 679.5C1990.55 679.5 2001.24 677.88 2011.61 674.64C2021.97 670.752 2031.69 665.892 2040.77 660.06C2050.49 654.228 2059.23 646.776 2067.01 637.704C2074.79 628.632 2081.27 618.912 2086.45 608.544Z" fill="white"/>
<path d="M2356.96 617.292V290.7H2512.48V583.272C2512.48 614.376 2518.63 638.352 2530.94 655.2C2543.26 671.4 2560.75 679.5 2583.43 679.5C2597.69 679.5 2611.3 677.232 2624.26 672.696C2637.22 667.512 2649.85 659.412 2662.16 648.396C2674.48 637.38 2685.49 623.124 2695.21 605.628V290.7H2850.73V627.984C2850.73 643.536 2853 654.552 2857.54 661.032C2862.72 666.864 2871.47 670.428 2883.78 671.724V801C2869.52 803.592 2856.89 805.536 2845.87 806.832C2835.5 808.128 2826.11 808.776 2817.68 808.776C2790.47 808.776 2768.76 803.268 2752.56 792.252C2736.36 780.588 2726.32 764.388 2722.43 743.652L2719.51 712.548C2696.18 746.244 2667.02 771.192 2632.03 787.392C2597.69 802.944 2559.13 810.72 2516.36 810.72C2464.52 810.72 2425 794.196 2397.78 761.148C2370.56 728.1 2356.96 680.148 2356.96 617.292Z" fill="white"/>
<path d="M3624.79 313.056C3622.84 309.816 3616.04 304.956 3604.37 298.476C3592.71 291.348 3578.13 283.896 3560.63 276.12C3543.14 268.344 3524.02 261.54 3503.29 255.708C3482.55 249.876 3461.81 246.96 3441.08 246.96C3413.86 246.96 3392.8 251.82 3377.9 261.54C3362.99 270.612 3355.54 284.868 3355.54 304.308C3355.54 319.86 3361.05 332.172 3372.07 341.244C3383.73 350.316 3400.25 358.416 3421.64 365.544C3443.02 372.024 3469.27 379.8 3500.37 388.872C3544.43 400.536 3582.67 414.792 3615.07 431.64C3647.47 447.84 3672.09 468.9 3688.94 494.82C3706.43 520.74 3715.18 555.084 3715.18 597.852C3715.18 636.732 3708.05 669.78 3693.8 696.996C3679.54 723.564 3660.1 745.272 3635.48 762.12C3611.5 778.32 3583.96 790.308 3552.86 798.084C3521.75 805.212 3489.68 808.776 3456.63 808.776C3422.93 808.776 3388.27 805.536 3352.63 799.056C3317.63 791.928 3283.94 782.208 3251.54 769.896C3219.14 756.936 3189.33 741.384 3162.11 723.24L3232.1 584.244C3234.69 587.484 3243.11 593.64 3257.37 602.712C3271.63 611.136 3289.12 620.208 3309.86 629.928C3331.24 639 3354.89 647.1 3380.81 654.228C3406.73 661.356 3432.98 664.92 3459.55 664.92C3488.06 664.92 3509.12 660.384 3522.73 651.312C3536.98 642.24 3544.11 629.604 3544.11 613.404C3544.11 595.908 3536.66 582.3 3521.75 572.58C3507.5 562.86 3487.73 554.112 3462.46 546.336C3437.84 538.56 3409.33 529.812 3376.93 520.092C3334.81 507.132 3299.81 492.552 3271.95 476.352C3244.73 460.152 3224.32 440.388 3210.71 417.06C3197.75 393.732 3191.27 364.572 3191.27 329.58C3191.27 280.98 3202.61 240.156 3225.29 207.108C3248.62 173.412 3279.73 148.14 3318.61 131.292C3357.49 113.796 3399.93 105.048 3445.94 105.048C3478.34 105.048 3509.44 108.936 3539.25 116.712C3569.71 124.488 3597.89 134.208 3623.81 145.872C3650.38 157.536 3674.03 169.2 3694.77 180.864L3624.79 313.056Z" fill="white"/>
<path d="M4113.28 773.784C4099.02 779.616 4083.14 785.448 4065.65 791.28C4048.8 797.112 4030.98 801.648 4012.19 804.888C3993.4 808.776 3974.93 810.72 3956.78 810.72C3930.86 810.72 3906.89 806.508 3884.86 798.084C3863.47 789.012 3846.3 774.432 3833.34 754.344C3821.03 734.256 3814.87 707.688 3814.87 674.64V408.312H3749.75V290.7H3814.87V128.376H3970.39V290.7H4074.4V408.312H3970.39V621.18C3970.39 638.028 3974.6 650.34 3983.03 658.116C3991.45 665.244 4002.14 668.808 4015.1 668.808C4026.12 668.808 4037.78 666.864 4050.1 662.976C4063.06 659.088 4074.07 654.876 4083.14 650.34L4113.28 773.784Z" fill="white"/>
<path d="M4141.8 648.396C4141.8 614.7 4151.19 585.216 4169.99 559.944C4188.78 534.672 4214.7 514.908 4247.75 500.652C4280.79 485.748 4318.7 478.296 4361.47 478.296C4382.21 478.296 4402.62 480.24 4422.71 484.128C4442.79 487.368 4460.29 492.228 4475.19 498.708V476.352C4475.19 448.488 4466.77 427.104 4449.92 412.2C4433.07 397.296 4407.48 389.844 4373.13 389.844C4344.62 389.844 4317.73 394.704 4292.46 404.424C4267.83 414.144 4241.59 428.076 4213.73 446.22L4167.07 347.076C4200.77 325.044 4235.76 308.52 4272.05 297.504C4308.98 286.488 4347.86 280.98 4388.69 280.98C4465.15 280.98 4524.44 299.448 4566.56 336.384C4609.33 372.672 4630.71 425.484 4630.71 494.82V627.984C4630.71 643.536 4632.98 654.552 4637.52 661.032C4642.7 666.864 4651.45 670.428 4663.76 671.724V801C4650.8 803.592 4638.49 805.536 4626.83 806.832C4615.81 808.128 4606.09 808.776 4597.67 808.776C4568.51 808.776 4546.15 802.944 4530.6 791.28C4515.69 779.616 4506.3 763.74 4502.41 743.652L4499.49 721.296C4476.81 750.456 4449.6 772.812 4417.85 788.364C4386.74 803.268 4354.02 810.72 4319.67 810.72C4285.98 810.72 4255.52 803.592 4228.31 789.336C4201.74 775.08 4180.68 755.64 4165.13 731.016C4149.57 706.392 4141.8 678.852 4141.8 648.396ZM4450.89 667.836C4458.02 662.004 4463.85 655.524 4468.39 648.396C4472.93 641.268 4475.19 634.464 4475.19 627.984V582.3C4462.23 577.116 4447.65 573.228 4431.45 570.636C4415.9 567.396 4401.32 565.776 4387.71 565.776C4359.2 565.776 4335.55 572.256 4316.76 585.216C4297.97 597.528 4288.57 614.052 4288.57 634.788C4288.57 646.452 4291.81 657.144 4298.29 666.864C4304.77 676.584 4313.52 684.36 4324.53 690.192C4336.2 696.024 4349.81 698.94 4365.36 698.94C4380.91 698.94 4396.46 696.024 4412.01 690.192C4427.57 684.36 4440.53 676.908 4450.89 667.836Z" fill="white"/>
<path d="M5069.14 773.784C5054.88 779.616 5039.01 785.448 5021.51 791.28C5004.66 797.112 4986.84 801.648 4968.05 804.888C4949.26 808.776 4930.79 810.72 4912.65 810.72C4886.73 810.72 4862.75 806.508 4840.72 798.084C4819.34 789.012 4802.16 774.432 4789.2 754.344C4776.89 734.256 4770.74 707.688 4770.74 674.64V408.312H4705.61V290.7H4770.74V128.376H4926.26V290.7H5030.26V408.312H4926.26V621.18C4926.26 638.028 4930.47 650.34 4938.89 658.116C4947.32 665.244 4958.01 668.808 4970.97 668.808C4981.98 668.808 4993.65 666.864 5005.96 662.976C5018.92 659.088 5029.94 654.876 5039.01 650.34L5069.14 773.784Z" fill="white"/>
<path d="M5129.74 801V290.7H5285.26V801H5129.74ZM5129.74 232.38V91.4399H5285.26V232.38H5129.74Z" fill="white"/>
<path d="M5634.72 810.72C5591.31 810.72 5552.43 803.592 5518.08 789.336C5484.39 775.08 5455.87 755.64 5432.55 731.016C5409.22 706.392 5391.4 678.204 5379.09 646.452C5367.42 614.7 5361.59 581.328 5361.59 546.336C5361.59 510.696 5367.42 477 5379.09 445.248C5391.4 413.496 5409.22 385.308 5432.55 360.684C5455.87 336.06 5484.39 316.62 5518.08 302.364C5552.43 288.108 5591.31 280.98 5634.72 280.98C5678.14 280.98 5716.69 288.108 5750.39 302.364C5784.09 316.62 5812.6 336.06 5835.93 360.684C5859.25 385.308 5877.07 413.496 5889.39 445.248C5901.7 477 5907.85 510.696 5907.85 546.336C5907.85 581.328 5901.7 614.7 5889.39 646.452C5877.07 678.204 5859.25 706.392 5835.93 731.016C5812.6 755.64 5784.09 775.08 5750.39 789.336C5716.69 803.592 5678.14 810.72 5634.72 810.72ZM5521 546.336C5521 572.904 5525.86 596.232 5535.58 616.32C5545.95 636.408 5559.55 651.96 5576.4 662.976C5593.25 673.992 5612.69 679.5 5634.72 679.5C5656.11 679.5 5675.22 673.992 5692.07 662.976C5709.57 651.312 5723.17 635.436 5732.89 615.348C5742.61 595.26 5747.47 572.256 5747.47 546.336C5747.47 519.768 5742.61 496.44 5732.89 476.352C5723.17 456.264 5709.57 440.712 5692.07 429.696C5675.22 418.68 5656.11 413.172 5634.72 413.172C5612.69 413.172 5593.25 418.68 5576.4 429.696C5559.55 440.712 5545.95 456.264 5535.58 476.352C5525.86 496.44 5521 519.768 5521 546.336Z" fill="white"/>
<path d="M6476.82 801H6321.3V514.26C6321.3 480.564 6314.82 456.264 6301.86 441.36C6289.54 425.808 6273.02 418.032 6252.28 418.032C6238.03 418.032 6223.45 421.92 6208.54 429.696C6193.64 437.472 6180.03 448.164 6167.72 461.772C6156.06 475.38 6146.98 490.932 6140.5 508.428V801H5984.98V290.7H6124.95V376.236C6137.91 356.148 6154.11 338.976 6173.55 324.72C6192.99 310.464 6215.35 299.772 6240.62 292.644C6265.89 284.868 6293.43 280.98 6323.24 280.98C6356.29 280.98 6382.86 287.136 6402.94 299.448C6423.68 311.112 6439.23 326.664 6449.6 346.104C6460.62 365.544 6467.74 386.604 6470.98 409.284C6474.87 431.316 6476.82 453.024 6476.82 474.408V801Z" fill="white"/>
</svg>
