<svg xmlns="http://www.w3.org/2000/svg" viewBox="0 0 1000 892.41"><defs><style>.cls-1{fill:#1a1a1a;}</style></defs><g id="Camada_2" data-name="Camada 2"><g id="Layer_1" data-name="Layer 1"><path class="cls-1" d="M980.77,110.5H931V93.27A19.23,19.23,0,0,0,911.76,74h-53V19.23A19.22,19.22,0,0,0,838.38,0C835.67.19,771.23,4.27,695,34.82,608.11,69.63,541.48,125,500,196.29,458.52,125,391.89,69.63,305,34.82,228.77,4.27,164.33.19,161.62,0a19.22,19.22,0,0,0-20.35,19.2V74h-53A19.23,19.23,0,0,0,69,93.27V110.5H19.23A19.23,19.23,0,0,0,0,129.73V788.55a19.25,19.25,0,0,0,20.9,19.16c2.82-.25,284.07-23.34,460.81,76.51l.19.1c.86.48,1.71,1,2.57,1.48.35.36.72.71,1.09,1.05A18.67,18.67,0,0,0,499,892.41c.33,0,.65,0,1-.06s.65.06,1,.06a19.27,19.27,0,0,0,10.47-3.1,19.77,19.77,0,0,0,3-2.46c.37-.34.74-.69,1.09-1.05.86-.5,1.71-1,2.57-1.48l.19-.1c176.74-99.85,458-76.76,460.81-76.51a19.23,19.23,0,0,0,20.9-19.16V129.73A19.23,19.23,0,0,0,980.77,110.5Zm-88.24,2V697.13a806,806,0,0,0-132.06,19.3c-54.28,12.53-124.2,35-189.71,74.56q5.25-6.13,11.1-12.35C646.89,709.7,734,671.08,840.8,663.86a19.23,19.23,0,0,0,17.93-19.18V112.5ZM708.19,71A495.19,495.19,0,0,1,820.27,40.75V627c-134.91,13.69-219,75-266.39,125.24a387.59,387.59,0,0,0-33,40V242.35a18.92,18.92,0,0,0-.22-2.71C556.13,163.62,619.16,106.91,708.19,71ZM179.73,40.73a493.22,493.22,0,0,1,111,29.79c89.6,35.91,153,92.78,188.65,169.12a18.92,18.92,0,0,0-.22,2.71V792.29a387.59,387.59,0,0,0-33-40C398.75,702,314.64,640.69,179.73,627ZM107.47,112.5h33.8V644.68a19.23,19.23,0,0,0,17.93,19.18C265.28,671,352,709.22,416.92,777.35c4.36,4.57,8.45,9.12,12.32,13.64-65.51-39.61-135.43-62-189.71-74.56a806,806,0,0,0-132.06-19.3ZM38.46,768V149H69V715.64a19.24,19.24,0,0,0,19.13,19.23c1.82,0,135.86,1.59,265.38,59.78q-74.89-18.36-166-24.84A1261.67,1261.67,0,0,0,38.46,768Zm923.08,0a1261.66,1261.66,0,0,0-149,1.77q-90.85,6.44-165.8,24.78c43.27-19.47,85.94-32.22,121.51-40.48,80.29-18.64,143-19.24,143.64-19.24A19.24,19.24,0,0,0,931,715.64V149h30.55Z"/></g></g></svg>