<svg xmlns="http://www.w3.org/2000/svg" viewBox="0 0 2058.14 1362.18"><defs><style>.cls-1{fill:#96d9c9;}.cls-2{fill:#3c8f7c;}.cls-3{fill:#50bfa5;}.cls-4{fill:#184655;}.cls-5{fill:#86b1f2;}.cls-6{fill:#fae0b2;}.cls-7{fill:#355389;}.cls-8{fill:#466eb6;}.cls-9{fill:#ff4c16;}.cls-10{fill:#f47458;}.cls-11{fill:#b75742;}.cls-12{fill:#13375b;}.cls-13{fill:#f7a491;}.cls-14{fill:#9bc1f9;}.cls-15{fill:#f7cc7f;}.cls-16{fill:#f48c7f;}.cls-17{fill:#07345a;}.cls-18{fill:#fff;}</style></defs><g id="Camada_2" data-name="Camada 2"><g id="Layer_1" data-name="Layer 1"><path class="cls-1" d="M1228.84,423.53l25-24.19c-7.82-43.75-48.86-64.8-75.88-67.67C1105.19,324,1068.09,374,1052.48,454.23c-28.49,146.46,7.38,761.47,7.38,761.47,2.68-16.33,200.33-633.94,195.26-803.63Z"/><path class="cls-2" d="M234.08,906.48,231,929.42l-7.42-26.54c-20.88-6.57-39-8.83-53.37-5.56-128.41,29.18,93.48,205.77,93.48,205.77s-70.72-44.39-139.2-72.5l-.87,23.26-8.76-26.28c-53.22-20.84-102.59-30.46-112.46-.39-9.28,28.32,9.41,55.13,41.57,79l37,1.3-21.79,9.14c74.27,47.58,197.14,81.61,239.56,89.35-40.58-6.38-139.76-19.28-198.54-6.6l9.22,15.35-23.21-11.6c-20.57,6.63-33.35,17.62-32,34.92,2.63,33.08,146.16,45,146.16,45l524.32-4.86,2.92,1.46S403.11,968.39,234.08,906.48Z"/><path class="cls-3" d="M1878.84,1212.49c-10.11-47-112.79-60.75-243.68-35,46.61-15.93,110.64-52.18,143.79-68.74l-22.67-14.44,45.55,2.12c37.25-21.81,55.88-43.23,43.71-62.61-9.09-14.48-29-20.5-56.06-20.43l-14.24,25.48,3-25.12c-68.18,3.93-83.65-7.2-175.62,30,57.47-29.84,65.78-39.09,69.55-51.07L1641,979h36.48c29.48-31.72,76.26-94.47,56.86-123.39-16-23.86-86.3,9.26-131.16,26.48L1584.1,925l3.86-36.68c-142.65,62.14-94.3,12.29-94.3,12.29s148.91-308,61.19-301.11c-34.63,2.73-71.87,23.6-108.45,57l-.92,30.62-10.88-19.43c-26.64,26.11-53,57.74-78.2,91.69,34.14-71.71,60-142.14,62.61-194.58L1393,561.72l25.72-17.89c-2.43-26.5-12.92-46.54-34.18-57.13-32.62-16.25-66.84,8.34-100.54,57.19l8.32,44.09-20.91-24.7c-120.66,196.66-231,680.82-231,680.82l-8.75,26.26,354.5,17.51S1899.27,1307.34,1878.84,1212.49Z"/><path class="cls-4" d="M2052,1290.19H23.31a5.87,5.87,0,1,1,0-11.74H2052a5.87,5.87,0,1,1,0,11.74Z"/><path class="cls-5" d="M1357.51,1081.59H526.08c-31.76,0-57.5-23.36-57.5-52.17v-31c0-28.81,25.74-52.16,57.5-52.16h831.43c-38,37.71-38.69,95.35-1.53,133.77Z"/><path class="cls-6" d="M1345.87,961.74H927.47a52.17,52.17,0,0,0-52.17,52.17h0a52.17,52.17,0,0,0,52.17,52.17H1345.9A100.3,100.3,0,0,1,1345.87,961.74Z"/><path class="cls-7" d="M1320.07,798.26c1.82-3.13-.94-6.75-5.15-6.75H652.77c-51.89,0-94,34.72-94,77.55h0c0,42.83,42.08,77.55,94,77.55H1315.1c4.23,0,7-3.65,5.16-6.79h0C1294,895,1294.11,842.89,1320.07,798.26Z"/><path class="cls-6" d="M1314.8,808.2H870.53a59.43,59.43,0,0,0-59.42,59.42v4.46a59.42,59.42,0,0,0,59.42,59.42h445.21C1295.84,892,1295.62,847.7,1314.8,808.2Z"/><path class="cls-6" d="M514.24,784.62H941.55c37.9,0,68.62-33.12,68.62-74h0c0-40.87-30.72-74-68.62-74H514.24c32.66,41,33.94,101.19,3,143.77Z"/><path class="cls-8" d="M1004.54,710.64h0c0-40.86-31.08-74-69.41-74H506.46a3.72,3.72,0,0,1-3.59-3.87h0a3.71,3.71,0,0,1,3.59-3.8h680c42.3,0,76.59,36.56,76.59,81.65h0c0,45.09-34.29,81.65-76.59,81.65h-680a3.72,3.72,0,0,1-3.6-3.8h0a3.73,3.73,0,0,1,3.6-3.87H935.13C973.46,784.62,1004.54,751.5,1004.54,710.64Z"/><path class="cls-9" d="M1034.83,870.34H989.1c-9.84,0-17.81,3-17.81,6.81v.61h63.54Z"/><path class="cls-10" d="M1073.83,887.42c0-9.43-11.94-17.08-26.67-17.08H988.47c11.18,0,20.23,5.8,20.23,13l-.27,183.11,32.42-23.54,33.05,23.54Z"/><path class="cls-11" d="M1699.37,1081.32H464a69.46,69.46,0,0,0-69.47,69.46v58.43A69.46,69.46,0,0,0,464,1278.67H1699.37l-.65-.67A141.45,141.45,0,0,1,1699.37,1081.32Z"/><path class="cls-6" d="M1677.5,1110.53H1017.06A69.46,69.46,0,0,0,947.6,1180h0a69.46,69.46,0,0,0,69.46,69.47h660.42A141.67,141.67,0,0,1,1677.5,1110.53Z"/><path class="cls-12" d="M1353.22,1180.35h-53.55a20.86,20.86,0,0,0-20.86,20.86v1.87h74.41Z"/><path class="cls-7" d="M1301.86,1180.43c12.8,0,31.92,10.83,42.7,24.2l127,157.55,74.62,0L1425.39,1212.3c-14.22-17.63-39.42-31.92-56.3-31.91Z"/><path class="cls-11" d="M183.91,1261.38l26-6.08s21.11,1.33,40.81-2.67c0,0,2,5.24,2.84,16,.15,1.87-2.53,11.15-4.38,11.43-6.7,1-18.49-.13-39.41.35,0,0-32.94,3.89-50.57-1.93S183.91,1261.38,183.91,1261.38Z"/><path class="cls-4" d="M471.52,835.28c1.44,15.11,14.13,20.44,26,30,7.94,6.42,6.57,23.76.51,34.53-15.37,27.27-2.28,30.64,10.1,50.67,29.83,48.25-62.6,58.91-73.57,62.51s-18.41,7.94-24.9,7.23c-19.55-2.17-37.45-30-47.38-55.68s14.18-27.06,15.41-41.83-27-17.94-18.61-45.83c9.05-30.17,21.82-55.75,38.78-64.92,28.07-15.17,62.19.7,69.95,12.89A23.51,23.51,0,0,1,471.52,835.28Z"/><path class="cls-6" d="M473.69,1165.59c2.43,6.05,15.8,27.45,15.8,27.45l-187.71,1.87-2.92-38.51c51.53-.42,102.48-23.21,150-39.51C450,1119.8,472.51,1162.66,473.69,1165.59Z"/><path class="cls-3" d="M340.63,1017.89s10.08-71.15,26.29-78.54,104,2.85,117.15,10.88-8.75,91.58-12.11,115c-.2,1.4-.42,2.8-.64,4.19a195.75,195.75,0,0,0,9.56,100.19c-48,14.59-60.5,22.61-112,21.17l-19.23-112.53S334.33,1023.75,340.63,1017.89Z"/><path class="cls-13" d="M436.64,892.52s4,39.18,7.5,48.79-9.27,29.15-30,34.56-5.66-20.87-6.15-31-2.5-58.23-2.5-58.23Z"/><path class="cls-10" d="M437.13,897a38.44,38.44,0,0,1-9.49,7.82c-7.85,4.63-15,5.65-21.23,4.22-.51-12.11-1-22.46-1-22.46l31.18,5.91S436.82,894.24,437.13,897Z"/><path class="cls-13" d="M429.37,821a35.63,35.63,0,0,1,19.47,15.2c7.21,12,11.21,46.54-14.5,61.69s-44.44-8.26-44-30.42S396.64,815.89,429.37,821Z"/><path class="cls-13" d="M382.57,858.16c.29,5.75,3.23,10.28,6.57,10.11s5.83-5,5.54-10.74-3.22-10.28-6.56-10.11S382.29,852.4,382.57,858.16Z"/><path class="cls-13" d="M448.13,867c-2,5.7-.56,11.43,3.27,12.8S460,877.65,462,872s.56-11.42-3.27-12.79S450.16,861.28,448.13,867Z"/><path class="cls-2" d="M484.07,950.23s-15,7.85-24.15,29.76,22.08,133.72,28.75,140.89,25.1,8.28,28.25-9.23S509.46,955.76,484.07,950.23Z"/><path class="cls-14" d="M394.53,935.26l25.81,155-100.48,16.2L288,961.47S370.63,928,394.53,935.26Z"/><path class="cls-14" d="M200.6,940a54.08,54.08,0,0,1,30.2-2.76c18.8,3.68,48.7,11.3,60.69,24.19,18.11,19.45,34.86,148.16,34.86,148.16l-78.1-17.51L200.6,940Z"/><path class="cls-15" d="M469.31,1205.2c-13.13-36.48-162-169.26-201.36-159l21.16,81S333.32,1259,376.65,1276s83.9-2.19,83.9-2.19S482.44,1241.68,469.31,1205.2Z"/><path class="cls-13" d="M415.87,992.16c-1.85,3.71,10,10.32,13.42,12.83s17.7-.07,17.7-.07S417.93,988,415.87,992.16Z"/><path class="cls-16" d="M288.71,1165.71s-37.82,78.59-37.94,86.78c-.18,11.78-54.68,8.55-42.84,3.51,2.72-1.16,11.29-5.51,11.95-6.07,3.52-3,34.91-100.63,34.91-100.63Z"/><path class="cls-15" d="M300.78,1071.69c-1.83-2-21-9.63-35.75,8.75s-43,161.48-43,161.48l34.78,3.41S343.33,1118.62,300.78,1071.69Z"/><path class="cls-10" d="M188.28,964.39,233,1094.83a14.47,14.47,0,0,0,11.58,9.74c41.94,5.94,63.83,9,63.83,9s8.18.43,16.86.54l96-10.25c8.35-.89,14.18-9,12.62-17.53L410.55,958.21a14.4,14.4,0,0,0-16.4-11.9l-92.37,15.53-24.28-.66-72.67-16.27C193.84,942.45,184.52,953.43,188.28,964.39Z"/><path class="cls-13" d="M383.7,1027.83s25.77,4.78,34.57,4.52,20.21,2.51,20.21,2.51,28.77,67.64,32.89,75.18c12.32,22.53,46.48,19.87,45.91,1.08-.45-14.92-58.79-108.51-74.3-108s-64.07-9.66-65.52-3.49c-.78,3.32,44.71,4.87,37.54,7.69-4.46,1.75-40.07-2.25-39.95,1.94s32.17,4.59,35.63,7.84-34.11-4-33.89,3.14c.1,3.58,33.08,1,36.69,6.43C415,1028.88,381,1020.79,383.7,1027.83Z"/><path class="cls-13" d="M209.93,1016.8a3.54,3.54,0,0,0-4.87,2.41c-.51,2.19-.62,4.84,1,6.59,3.23,3.47,25.77,6.8,25.89,3.44C232.05,1026.67,216.93,1019.83,209.93,1016.8Z"/><path class="cls-13" d="M205.55,1025.55s-2.27,8.45-.31,8.52,26.35,2.49,27.43-.41S208.68,1023.84,205.55,1025.55Z"/><path class="cls-13" d="M204.49,1034.27s-.69,3.75,1.33,5.92,24.73.75,25.56-2.85S205.29,1031.5,204.49,1034.27Z"/><path class="cls-13" d="M208,1042.2s0,2.87,1.11,4.1,17.92-.47,19.59-4S209.91,1038.5,208,1042.2Z"/><path class="cls-13" d="M264.85,1240.58s-8,29-16.06,48.16c-5.26,12.54-6.62,25-10.1,31.31-8.82,15.84-23.23,16.47-34.67,7s3.9-49.64,3.9-49.64l36.13-50.83Z"/><path class="cls-10" d="M238.69,1320.05c3.09-5.56,4.52-16.06,8.49-27.12-5.53,3.2-14.8,5.62-19.84,4.27-18.49-4.94-19.42-19.83-19.42-19.83s-19.27,41.13-7.82,50.64S229.87,1335.89,238.69,1320.05Z"/><polygon class="cls-11" points="301.79 961.84 331.38 1114.96 313.57 1113.89 308.42 1113.52 277.51 961.19 301.79 961.84"/><path class="cls-6" d="M404.85,1267c10.13,18.63,30.32,21.53,48.49,20,20.1-1.69,42.23-12.68,48.17-35.76,6.34-24.64-2-55.14-16.64-74.48-74.9-99-75.48-108.73-105.3-121.87-32.19-14.2-151.75,190-151.75,190l32.83,16.78s49.25-41.16,80.71-77.25c3.7-4.24,14.23-26.2,14.23-26.2S398.15,1254.7,404.85,1267Z"/><path class="cls-15" d="M406,671.74c-31.65,4.79-41.58,46.13-15.56,65a24.08,24.08,0,0,1,9.19,14.07l4.53,19.35a10.51,10.51,0,0,0,11.8,8l12-1.81a10.5,10.5,0,0,0,8.91-11.12c-1.4-19.94-3.36-27.19,3.23-36C459.31,703.52,437.62,667,406,671.74Z"/><path class="cls-6" d="M412.87,763.05h0a2.91,2.91,0,0,1-3.29-2.48l-5.9-42.19-9.88-8.47a2.91,2.91,0,1,1,3.79-4.42l11.55,9.9,6.21,44.37A2.93,2.93,0,0,1,412.87,763.05Z"/><path class="cls-6" d="M427.55,762.63h0a2.91,2.91,0,0,0,2.41-3.34l-6.84-42,6.94-11a2.91,2.91,0,1,0-4.93-3.1L417.05,716l7.19,44.22A2.91,2.91,0,0,0,427.55,762.63Z"/><path class="cls-1" d="M399.45,750.34c0,.16.1.32.13.48l4.53,19.35a10.51,10.51,0,0,0,11.8,8l12-1.81a10.5,10.5,0,0,0,8.91-11.12c-.62-8.87-1.35-15.23-1.4-20.32Z"/><path class="cls-10" d="M400,363.7l-12.54-18.14-22.05.05a3,3,0,0,1-2.42-4.87l13.37-17.54-6.86-21a3,3,0,0,1,3.89-3.8l20.81,7.3,17.81-13a3,3,0,0,1,4.82,2.52l-.52,22.05,17.87,12.92a3,3,0,0,1-.9,5.36l-21.13,6.33-6.77,21A3,3,0,0,1,400,363.7Z"/><path class="cls-14" d="M1561.5,396.57l-9.21-13.33-16.2,0a2.23,2.23,0,0,1-1.78-3.58l9.83-12.88-5-15.39a2.23,2.23,0,0,1,2.85-2.8l15.29,5.37,13.08-9.55a2.23,2.23,0,0,1,3.54,1.85l-.38,16.19,13.13,9.5a2.22,2.22,0,0,1-.66,3.93l-15.52,4.65-5,15.42A2.23,2.23,0,0,1,1561.5,396.57Z"/><polygon class="cls-16" points="1303.27 200.71 1282.89 197.28 1270.96 214.64 1248.4 209.19 1241.39 231.59 1215.6 226.55 1206.6 246.39 1181 245.59 1181.3 235.9 1200.44 236.49 1209.94 215.56 1234.73 220.41 1241.86 197.63 1266.75 203.65 1278.41 186.7 1297.29 189.87 1302.61 177.14 1311.56 180.88 1303.27 200.71"/><polygon class="cls-3" points="724.99 263.85 710.07 268.43 700.05 245.24 677.42 249.25 667.08 233.12 658.92 238.35 672.74 259.92 694.19 256.13 704.61 280.25 727.06 273.36 724.99 263.85"/><path class="cls-16" d="M285.77,509.49l-22.33,13.58,23.16,104a13.45,13.45,0,0,0,20.11,8.57h0a13.46,13.46,0,0,0,6.11-14.52l-5.66-24.43,23.43-14.25L350,598.68a13.45,13.45,0,0,0,15.62,1.18l.42-.26a13.44,13.44,0,0,0,1.63-21.81Zm15.1,62.68-4.28-19.11,15,12.57Z"/><path class="cls-15" d="M1632.7,607.92c1.14-2.94.75-13.5,15.41-23.64,6-4.13,11-7.64,12.31-12.45,2.3-8.31-6.44-12.3-15.15-12.26a8.33,8.33,0,0,1-8.33-8.1h0a8.37,8.37,0,0,1,8-8.63,54.61,54.61,0,0,1,17,1.95c18.7,5.19,24.33,17.9,21.07,29.65-3,10.77-11.62,16-18.65,20.46-11.84,7.52-11.84,15.9-12.85,18.25Zm-9.11,18.53c2.08-7.51,8.82-11.44,16.19-9.39,7.64,2.12,11.11,8.88,9.17,16.43-2,7.36-8.68,11.47-16.33,9.35S1621.54,633.81,1623.59,626.45Z"/><path class="cls-15" d="M1008.08,66.83c-29.12,0-43.67,35.83-22.84,56.35a21.86,21.86,0,0,1,6.35,13.9l1.45,18a9.55,9.55,0,0,0,9.52,8.8h11a9.55,9.55,0,0,0,9.52-8.8c1.45-18.11.68-24.9,7.8-31.91C1051.74,102.66,1037.2,66.83,1008.08,66.83Z"/><path class="cls-6" d="M1001.88,149.88h0a2.65,2.65,0,0,1-2.62-2.68l.43-38.74-7.74-9a2.65,2.65,0,1,1,4-3.46l9.05,10.47-.45,40.75A2.65,2.65,0,0,1,1001.88,149.88Z"/><path class="cls-6" d="M1015.14,151.5h0a2.66,2.66,0,0,0,2.62-2.68l-.43-38.74,7.73-9a2.65,2.65,0,1,0-4-3.46L1012,108.13l.46,40.75A2.65,2.65,0,0,0,1015.14,151.5Z"/><path class="cls-1" d="M991.54,136.63c0,.15,0,.3.05.45l1.45,18a9.55,9.55,0,0,0,9.52,8.8h11a9.55,9.55,0,0,0,9.52-8.8c.65-8.05.85-13.87,1.51-18.46Z"/><polygon class="cls-6" points="1064.11 17.51 1038.94 60.19 1081.62 28.45 1064.11 17.51"/><polygon class="cls-6" points="961.77 6.51 987.5 50.34 983.13 0 961.77 6.51"/><polygon class="cls-6" points="917.02 69.26 957.96 85.36 916.17 87.86 917.02 69.26"/><polygon class="cls-6" points="1043.31 126.94 1059.73 147.73 1071.77 133.5 1043.31 126.94"/><polygon class="cls-6" points="1059.73 88.64 1096.93 73.32 1098.03 89.73 1059.73 88.64"/><polygon class="cls-6" points="962.34 130.22 927.32 146.64 938.26 159.77 962.34 130.22"/><path class="cls-1" d="M546.85,351.83c5.72.46,16.92,2.78,27.21,5.72,12.58,3.6,20,7,25.46,12.84a20.65,20.65,0,0,1,5.86,21c-2.32,8.13-9.23,14.35-20.6,15.2l-.07.27c9.61,5.82,15.08,15.88,11.71,27.65a25.27,25.27,0,0,1-15,16.65c-8.14,3.38-20.09,3.19-38.23-2a167.74,167.74,0,0,1-22-7.74Zm10.46,40.76,6.77,1.93c10.82,3.1,17.92.29,19.86-6.47,2-6.91-2.27-12.07-11.61-14.74a57.51,57.51,0,0,0-9-2Zm-11.57,40.47a66.68,66.68,0,0,0,7.91,2.55c9.34,2.67,18.6,1.51,21.35-8.1,2.63-9.2-4.58-15.22-14.87-18.16l-7-2Z"/><path class="cls-15" d="M1430.24,391.29a9.53,9.53,0,0,1-7,11.4,89.57,89.57,0,0,1-17.63,2.26c-36,1.21-55.23-20.54-56.23-50.17-1.2-35.49,23.44-56.09,54.92-57.15a80.18,80.18,0,0,1,16.2,1,9.54,9.54,0,0,1,7.65,11.47l-.07.33a9.53,9.53,0,0,1-10.93,7.36A52.64,52.64,0,0,0,1406,317c-18.67.63-32.8,12.39-32,35.53.7,20.83,13.49,33.53,34.48,32.83a62.41,62.41,0,0,0,10.52-1.33,9.53,9.53,0,0,1,11.24,7.23Z"/><path class="cls-8" d="M264.19,875.37a14.57,14.57,0,0,1,9.14-18.28c7.77-2.57,14.85,1.24,17.8,9s-.33,15.53-8.42,18.44S266.89,883.4,264.19,875.37Zm-2.54-22.55L237.44,795a9.06,9.06,0,0,1,5.29-12l5.89-2.13a9.07,9.07,0,0,1,11.74,5.88l18.37,60Z"/><path class="cls-16" d="M1364.44,800.34s62.4,27.19,67.9,28.4c3.46.76,43.12-40.35,64.74-56.4,1-.75,4.84-6.21,5.92-6.75,12.86-6.47-8.89,30.76-8.89,30.76s-46,58.51-56.41,63.52c-13.08,6.29-77.69-25.65-77.3-27.49Z"/><path class="cls-4" d="M1354.54,741.93c2.68-18.38,15.45-57.53,3.67-73.18-16.55-22-51.54-21-68.07.09-7.57,9.7-11.67,21.58-15.67,33.22-2.58,7.51-5.18,15.07-8.82,22.14-3.25,6.33-7,14.24-13.14,18.09-27.48,17.11-58.24,28.13-60.22,66.68-2.35,45.71,47.73,102.9,109.22,75.22,23.54-10.6,54.38-44.87,64.44-68.58,4.54-10.69,2.37-9.57-.13-25.86C1363.57,775.17,1352.38,756.74,1354.54,741.93Z"/><path class="cls-7" d="M1321.08,769.28l83.54,46-19.7,29.92s-62.89-24-75.61-27.41S1306.61,768,1321.08,769.28Z"/><path class="cls-13" d="M1319.65,729.4s-2.17,31.81-3.79,40.73c-1.68,9.22-2.7,47.59,16.47,52.27s12-47.27,12.28-56.59,2.19-39.57,2.19-39.57Z"/><path class="cls-10" d="M1319.38,733.22a36.07,36.07,0,0,0,5.22,6.13c7.06,6.66,14.33,8.83,21,8,.6-10.55,1.25-21.07,1.25-21.07l-27.15,3.16S1319.55,730.85,1319.38,733.22Z"/><path class="cls-13" d="M1339.46,668.51a32.8,32.8,0,0,0-20.57,9.58c-8.91,9.21-19.58,39.29.36,58.1s39.67,2.65,43.79-17.25S1369.84,670.69,1339.46,668.51Z"/><path class="cls-4" d="M1350.39,669.45s-12.16,31.37-40.87,28.72c-13-1.2-16,16.56-16,16.56s10.64-42.17,24-48.44S1350.39,669.45,1350.39,669.45Z"/><path class="cls-13" d="M1313.21,705.76c.66,5.5-1.83,10.32-5.55,10.76s-7.26-3.66-7.91-9.16,1.83-10.32,5.55-10.76S1312.56,700.26,1313.21,705.76Z"/><path class="cls-11" d="M1526.65,716.07l-70.72,144.5c-1.69,3.45-1.16,7.45,1.15,8.81l51.66,30.25,64.58-128s-28.13-42.1-38.69-57.89C1532.68,710.77,1528.66,712,1526.65,716.07Z"/><path class="cls-6" d="M1465,855.82l61.53-125.73c2-4.1,6-5.3,8-2.38,8.58,12.82,21.54,32.21,30.85,46.15l-58,114.93-41.25-24.16C1463.84,863.28,1463.32,859.27,1465,855.82Z"/><path class="cls-16" d="M1498.62,762.83a15,15,0,0,1,5.49-4.4c3-.79,6.6-.67,7.19,1.25.86,2.79-8,5.89-8,5.89l-4.8,7S1496.3,766.85,1498.62,762.83Z"/><path class="cls-13" d="M1317.23,761.55s21.77,18,28,24.24,17.06,13.77,17.06,13.77l-17.61-24.35-11.15-10.41Z"/><path class="cls-16" d="M1587.5,1049.8c-3.38-2.81-6.46-10.84-7.7-14.36-7.32-37.87-41.92-140.31-79.6-140.31-32.84,0-134.25,79.53-181.67,125.49-13.69,13.27-12.77,2-4.38,5.11,5,1.84,38.87,58.16,44.29,58.41,16.56.76,31.87-10.33,45.69-18.05,21.08-11.76,35.73-25.18,48-43.45,31-46.3,42.64-73.55,52-91.27,0,0,8.81,36.44,13.13,45.23,9.76,19.85,38.93,68.74,50.34,87.79l44.75-1.21S1591.88,1053.45,1587.5,1049.8Z"/><path class="cls-13" d="M1503.11,916.29s-150.29,70-159.77,94.11-2.19,59.83,19.7,67.12,157.58-108.7,157.58-108.7,17.51,32.1,42.32,54c13.22,11.66,35.58,21.18,48.33,29.73,11.18,7.48,13.68,14.77,13.68,14.77l31.37,1.46s-5.28-1.81-14.77-14.59C1609.51,1011,1535.2,910.66,1503.11,916.29Z"/><path class="cls-12" d="M1445.11,907.53s48.28,52.05,57.76,120.63c0,0-75.63,32.58-112.84,52.28s-78.79-.73-91.93-22.61,0-83.54,0-83.54l77.34-12Z"/><path class="cls-7" d="M1559.65,1051.38c-3.84-1.46-5.19,18-5.82,22.33-.71,4.89,1.62,8.2,2.21,8.6,1.59,1.1,63.57,2.33,75.42-.85a11.86,11.86,0,0,0,2.77-1.48c8.71-7.59-31.56-27.73-39.68-26C1587.33,1055.44,1577,1058,1559.65,1051.38Z"/><path class="cls-8" d="M1316,770s-11.79-.11-24.4,27c-15.5,33.38,6.61,160.77,5,178.94,0,0,5.46,6.29,37.28,10.88A49.23,49.23,0,0,0,1378,970.82s-7.17-49.18,3.7-95.45c5.88-25.07,9-49.38-14.28-71.92S1316,770,1316,770Z"/><path class="cls-8" d="M1611.68,1052.59c-3.84-1.47-7.16,17.27-6.87,21.86.3,4.92,1.56,8.5,2.15,8.91,1.59,1.1,63.63,2,75.48-1.17a11.86,11.86,0,0,0,2.77-1.48c8.71-7.59-36.07-26.59-44.19-24.91C1633.8,1057.3,1629,1059.18,1611.68,1052.59Z"/><path class="cls-10" d="M1570.2,710.08,1453,880.76c-2.7,3.94-2.06,8.73,1.34,10l79.27,29.55,93.76-134.4-46.78-77.51C1578.46,704.89,1573.17,705.76,1570.2,710.08Z"/><path class="cls-13" d="M1542.34,839.49c-1.51-2.91-13.68,3.55-13.68,3.55s-10.84,1.88-11.6,1.48,7.28-1.14,7.28-1.14,13.3-4.55,13.16-6c-.61-6.14-9,1.5-15.48,1.78a85.3,85.3,0,0,1-15.21-.68c-1.92-1.08,3-3.5,3-3.5s6.4-2.88,5.38-4.56c-2.49-4.09-17.46,3.68-20.61,6.57-2.11,1.93-4.75,5.68-8.42,7.76-16,9-35.16,24.57-57.79,35.47-7.49-6.3-79.77-71.18-81.59-72.75l-39.48,31.09s113.26,86.26,119.55,86.05c7.91-.26,55-50,67.8-61.87,1.93-1.79,14.05-3.14,17.38-2.68,7.41,1,21.3-4.78,21.3-4.78,4.27-4.52-15.77,0-13.87-1.13.84-.52,5.74-1,10.61-1.71s9.47-3.56,10.08-4.92c1.18-2.65-11.17,1.16-11.17,1.16l-10.3.64,9.85-2S1543.81,842.32,1542.34,839.49Z"/><path class="cls-5" d="M1335.64,787.7c-12.76-13.06-37.31-11.16-44.47,7.48-2,5.19-1.9,20.06.37,25.54,9.08,21.88,62,57.63,62,57.63l29.18-39.76Z"/><path class="cls-13" d="M811.09,407.4c0-1.67,2.07-12.49,2.07-12.49s-4.82-15.33-5.31-15.37c-9.9-.71-17.37,6-15.7,15.07l.1.3a46,46,0,0,0,35.8,31.55c3.85.69,7.92,1.42,12.09,2.15a68.06,68.06,0,0,1-3.1-20.19C822.57,408.31,811.09,408,811.09,407.4Z"/><path class="cls-7" d="M978.55,339.74c-.27-.82-87.06,55.63-87.06,55.63s-37,.37-64.41.13a87.86,87.86,0,0,0,3.44,24.18c27,5.12,57.85,10.52,64.86,10,13.06-1,78.55-33.68,78.55-33.68S978.75,340.36,978.55,339.74Z"/><path class="cls-8" d="M979.52,550.53c-.18-1.42-18.51-64.3-20.42-120.62-1.49-43.68,12-82.83,19-90,2.56-2.68,26.39-8.39,26.39-8.39l-8.67,14.4c-8.82,16.64-11.21,31.38-15,50.16-11.1,54.47,38.77,163.46,36.24,164.16C1014.15,561,980.23,556.11,979.52,550.53Z"/><polygon class="cls-14" points="789.32 330.71 774.09 340.66 819.63 417.31 833.94 355.07 789.32 330.71"/><polygon class="cls-14" points="798.74 318.66 817.88 382.28 833.21 354.79 798.74 318.66"/><polygon class="cls-14" points="925.16 311.31 939.88 364.73 831.39 354.88 925.16 311.31"/><path class="cls-13" d="M863.28,537.32S817.17,593.65,817,601.83c-.18,11.79-54.68,8.56-42.84,3.51,2.72-1.16,11.3-5.5,12-6.07,3.52-3,39.84-74.13,39.84-74.13Z"/><path class="cls-17" d="M750.19,610.72l35-10.9S797.34,606,817,602A46.93,46.93,0,0,1,823,621c.15,1.87,1.07,7.4-.78,7.68-6.7,1-25.25.59-46.18,1.07,0,0-28.19.33-45.81-5.48S750.19,610.72,750.19,610.72Z"/><path class="cls-11" d="M1086.53,550.77s-41.49-9.47-80.26-37.2C961.42,481.48,910.94,448.1,891,450.82c-16,2.19-109.43,130.6-109.43,130.6l45.23,19.69,81.71-83.9s83.47,86,110.9,91.93C1081.87,622.52,1101.82,576.46,1086.53,550.77Z"/><path class="cls-15" d="M772,340.67l62.91,133.27a2.19,2.19,0,0,0,1.48,1.2l42,11.68-53.69-132-50-17.13A2.19,2.19,0,0,0,772,340.67Z"/><path class="cls-17" d="M986,214.76s11.62-15.84,24.59,0c0,0,7.72-5.72,14.61,1.85,0,0,14.45-6.43,20.94,15.57,0,0,7.54-2.44,9.73,6.62a22.91,22.91,0,0,1-1.71,15.77s4.76,2.71,3.86,11.4c-.77,7.4-6.57,9.24-6.57,9.24s-.07,12.31-4.86,16.62-12.16,3.47-12.16,3.47-1.06,6.8-7.26,7-14.52-4.68-21-1.18-24.66,3-24.66,3-21.11-6.37-17.72-27.54c0,0-11.7-8.15-3.95-20.68,0,0-9-16.94,3-29.13S986,214.76,986,214.76Z"/><path class="cls-13" d="M922,716.39s2.55,69.31,4.14,81-29.42,46.89-25.46,34.64c.91-2.81,3.26-12.13,3.26-13,0-4.65-11.49-83.71-11.49-83.71Z"/><path class="cls-17" d="M889,853.73l14.76-33.61s12.59-5.09,22.49-22.59a47,47,0,0,1,18.33,8c1.5,1.11,6.28,4,5.28,5.63-3.62,5.73-16.12,19.45-29.48,35.55,0,0-18.24,21.49-34.19,31S889,853.73,889,853.73Z"/><path class="cls-10" d="M891.73,788.61c3.24-3.29-32.8-180.6-15.32-197.71s134.24-42.32,134.24-42.32l15.32-54s48.82,14.31,68.58,43.77c10.81,16.11-.24,52.85-2.19,56.91-16.67,34.72-57.87,36.48-87.85,36.17-27.58-.29-76.54-.67-76.54-.67l-.12,156.74s-12,2.92-21.53,2.55C893.35,789.57,891.73,788.61,891.73,788.61Z"/><path class="cls-18" d="M1000,335.33,1031.59,324a11.94,11.94,0,0,0,1.25,0c3.39-.43,40.7,121.66,52.88,167.84s-3.77,37.43-3.77,37.43-27.9,17.38-60.35,18.61c-33.75,1.27-27-39.4-27-39.4s-17.77-84.91-15.68-113.81S1000,335.33,1000,335.33Z"/><path class="cls-13" d="M1000.48,310.5l-.13,15.57,0,2.76s-2.15,26.64,5.48,30.76S1031.57,324,1031.57,324l-8.2-45.2Z"/><path class="cls-10" d="M1026,293.47c-3.8,16.3-16.36,27.62-25.66,32.57l.12-15.54,22.89-31.73Z"/><path class="cls-13" d="M1001.12,232.86A24.26,24.26,0,0,0,972,256a182.65,182.65,0,0,0,1,23.36c2.28,21.09,15.77,40.19,25.33,39s34.23-18.18,31.4-48.18C1028,251.69,1016.67,236.1,1001.12,232.86Z"/><path class="cls-13" d="M1023,273.46c.59,4.64,4.14,8,7.94,7.53s6.4-4.63,5.81-9.27-4.15-8-7.94-7.54S1022.42,268.82,1023,273.46Z"/><path class="cls-17" d="M958.39,227.64c-8.88,9.07-10.83,21.39-4.36,27.51s18.91,3.74,27.79-5.33,10.83-21.39,4.36-27.51S967.27,218.57,958.39,227.64Z"/><path class="cls-17" d="M985,230.78c.43,3.39,4.88,5.63,9.94,5s8.82-3.92,8.39-7.32-4.88-5.63-10-5S984.58,227.38,985,230.78Z"/><path class="cls-17" d="M961.06,260.38a7.88,7.88,0,1,0,6.82-8.9A7.92,7.92,0,0,0,961.06,260.38Z"/><path class="cls-8" d="M1031.57,324s31-5,41.36-.6c6.61,2.82,15,58.94,15,58.94s.34,56.76,4.21,72.77c13.12,54.26,31.43,101.77,29.38,104.45-13.46,11.07-69.78,21.32-74,16.05C1000.24,517.36,1031.57,324,1031.57,324Z"/><path class="cls-13" d="M1083.24,381.51s-31,95.81-44.55,105.85-74.55-84-74.55-84-27-15.32-28.91-15.48c-7.66-.64,16-4.58,16-4.58l2.92-24.44s1.16.17,8.21,8.11c9.53,10.74,17.81,27.38,21.7,30.19l40.86,31,20.79-66.4Z"/><polygon class="cls-6" points="824.67 354.8 837.5 353.55 892.49 490.4 878.36 486.81 824.67 354.8"/><path class="cls-15" d="M947,321.45l33.1,161.12a4.39,4.39,0,0,1-4.16,5.26l-83.41,2.57-55-136.85,103.76-35.36A4.37,4.37,0,0,1,947,321.45Z"/><path class="cls-5" d="M980.56,391.36,970,414.53s52,85.54,68,80.8,46.33-97.4,51.07-122.94-5.11-46.69-18.24-50-23.34,19-27.36,28.45-18.6,77.34-18.6,77.34Z"/><path class="cls-13" d="M795.75,392.64a36.38,36.38,0,0,1-2.58-5.51c-.62-2.09,12.17-9.35,17.24-6S802,389.44,795.75,392.64Z"/><path class="cls-13" d="M796.28,401s-3.21-3.37-3.84-5.46,16.41-10.66,21.47-7.35S802.48,397.81,796.28,401Z"/><path class="cls-13" d="M802.12,406.85s-3.21-3.38-3.84-5.47,12.17-9.34,17.24-6S808.32,403.64,802.12,406.85Z"/><path class="cls-13" d="M956.85,368.38h-2.66a17.5,17.5,0,0,1-3.75-.4c-4.91-1.07-18.33-3.74-19.37-1.06C929.79,370.2,950.4,374,950.4,374s-22.62-2.92-22.62.91,23,5.83,23,5.83-20.07-.73-20.43,1.46S955,390.63,955,390.63s-20.24-4.37-22.25-1.82,31.74,14.86,31.74,14.86Z"/><path class="cls-13" d="M802.12,406.85s11.06-6.25,14-4.3-9.48,11.31-9.48,11.31l1.48,3.42S800.17,411.14,802.12,406.85Z"/></g></g></svg>